<svg width="140" height="140" viewPort="10 10 130 130" version="1.1" xmlns="http://www.w3.org/2000/svg">
<rect xmlns="http://www.w3.org/2000/svg" width="100%" height="100%" fill="#ECECEC"/><rect xmlns="http://www.w3.org/2000/svg" x="40" y="20" width="10" height="10"/>
<rect xmlns="http://www.w3.org/2000/svg" x="60" y="20" width="10" height="10"/>
<rect xmlns="http://www.w3.org/2000/svg" x="70" y="20" width="10" height="10"/>
<rect xmlns="http://www.w3.org/2000/svg" x="90" y="20" width="10" height="10"/>
<rect xmlns="http://www.w3.org/2000/svg" x="40" y="30" width="10" height="10"/>
<rect xmlns="http://www.w3.org/2000/svg" x="50" y="30" width="10" height="10"/>
<rect xmlns="http://www.w3.org/2000/svg" x="60" y="30" width="10" height="10"/>
<rect xmlns="http://www.w3.org/2000/svg" x="70" y="30" width="10" height="10"/>
<rect xmlns="http://www.w3.org/2000/svg" x="80" y="30" width="10" height="10"/>
<rect xmlns="http://www.w3.org/2000/svg" x="90" y="30" width="10" height="10"/>
<rect xmlns="http://www.w3.org/2000/svg" x="30" y="40" width="10" height="10"/>
<rect xmlns="http://www.w3.org/2000/svg" x="40" y="40" width="10" height="10"/>
<rect xmlns="http://www.w3.org/2000/svg" x="50" y="40" width="10" height="10"/>
<rect xmlns="http://www.w3.org/2000/svg" x="80" y="40" width="10" height="10"/>
<rect xmlns="http://www.w3.org/2000/svg" x="90" y="40" width="10" height="10"/>
<rect xmlns="http://www.w3.org/2000/svg" x="100" y="40" width="10" height="10"/>
<rect xmlns="http://www.w3.org/2000/svg" x="40" y="50" width="10" height="10"/>
<rect xmlns="http://www.w3.org/2000/svg" x="50" y="50" width="10" height="10"/>
<rect xmlns="http://www.w3.org/2000/svg" x="60" y="50" width="10" height="10"/>
<rect xmlns="http://www.w3.org/2000/svg" x="70" y="50" width="10" height="10"/>
<rect xmlns="http://www.w3.org/2000/svg" x="80" y="50" width="10" height="10"/>
<rect xmlns="http://www.w3.org/2000/svg" x="90" y="50" width="10" height="10"/>
<rect xmlns="http://www.w3.org/2000/svg" x="30" y="60" width="10" height="10"/>
<rect xmlns="http://www.w3.org/2000/svg" x="40" y="60" width="10" height="10"/>
<rect xmlns="http://www.w3.org/2000/svg" x="60" y="60" width="10" height="10"/>
<rect xmlns="http://www.w3.org/2000/svg" x="70" y="60" width="10" height="10"/>
<rect xmlns="http://www.w3.org/2000/svg" x="90" y="60" width="10" height="10"/>
<rect xmlns="http://www.w3.org/2000/svg" x="100" y="60" width="10" height="10"/>
<rect xmlns="http://www.w3.org/2000/svg" x="30" y="70" width="10" height="10"/>
<rect xmlns="http://www.w3.org/2000/svg" x="40" y="70" width="10" height="10"/>
<rect xmlns="http://www.w3.org/2000/svg" x="50" y="70" width="10" height="10"/>
<rect xmlns="http://www.w3.org/2000/svg" x="80" y="70" width="10" height="10"/>
<rect xmlns="http://www.w3.org/2000/svg" x="90" y="70" width="10" height="10"/>
<rect xmlns="http://www.w3.org/2000/svg" x="100" y="70" width="10" height="10"/>
<rect xmlns="http://www.w3.org/2000/svg" x="40" y="80" width="10" height="10"/>
<rect xmlns="http://www.w3.org/2000/svg" x="50" y="80" width="10" height="10"/>
<rect xmlns="http://www.w3.org/2000/svg" x="60" y="80" width="10" height="10"/>
<rect xmlns="http://www.w3.org/2000/svg" x="70" y="80" width="10" height="10"/>
<rect xmlns="http://www.w3.org/2000/svg" x="80" y="80" width="10" height="10"/>
<rect xmlns="http://www.w3.org/2000/svg" x="90" y="80" width="10" height="10"/>
<rect xmlns="http://www.w3.org/2000/svg" x="40" y="90" width="10" height="10"/>
<rect xmlns="http://www.w3.org/2000/svg" x="50" y="90" width="10" height="10"/>
<rect xmlns="http://www.w3.org/2000/svg" x="60" y="90" width="10" height="10"/>
<rect xmlns="http://www.w3.org/2000/svg" x="70" y="90" width="10" height="10"/>
<rect xmlns="http://www.w3.org/2000/svg" x="80" y="90" width="10" height="10"/>
<rect xmlns="http://www.w3.org/2000/svg" x="90" y="90" width="10" height="10"/>
<rect xmlns="http://www.w3.org/2000/svg" x="20" y="100" width="10" height="10"/>
<rect xmlns="http://www.w3.org/2000/svg" x="30" y="100" width="10" height="10"/>
<rect xmlns="http://www.w3.org/2000/svg" x="40" y="100" width="10" height="10"/>
<rect xmlns="http://www.w3.org/2000/svg" x="50" y="100" width="10" height="10"/>
<rect xmlns="http://www.w3.org/2000/svg" x="60" y="100" width="10" height="10"/>
<rect xmlns="http://www.w3.org/2000/svg" x="70" y="100" width="10" height="10"/>
<rect xmlns="http://www.w3.org/2000/svg" x="80" y="100" width="10" height="10"/>
<rect xmlns="http://www.w3.org/2000/svg" x="90" y="100" width="10" height="10"/>
<rect xmlns="http://www.w3.org/2000/svg" x="100" y="100" width="10" height="10"/>
<rect xmlns="http://www.w3.org/2000/svg" x="110" y="100" width="10" height="10"/>
<rect xmlns="http://www.w3.org/2000/svg" x="20" y="110" width="10" height="10"/>
<rect xmlns="http://www.w3.org/2000/svg" x="40" y="110" width="10" height="10"/>
<rect xmlns="http://www.w3.org/2000/svg" x="60" y="110" width="10" height="10"/>
<rect xmlns="http://www.w3.org/2000/svg" x="70" y="110" width="10" height="10"/>
<rect xmlns="http://www.w3.org/2000/svg" x="90" y="110" width="10" height="10"/>
<rect xmlns="http://www.w3.org/2000/svg" x="110" y="110" width="10" height="10"/>
<rect xmlns="http://www.w3.org/2000/svg" x="30" y="120" width="10" height="10"/>
<rect xmlns="http://www.w3.org/2000/svg" x="40" y="120" width="10" height="10"/>
<rect xmlns="http://www.w3.org/2000/svg" x="50" y="120" width="10" height="10"/>
<rect xmlns="http://www.w3.org/2000/svg" x="80" y="120" width="10" height="10"/>
<rect xmlns="http://www.w3.org/2000/svg" x="90" y="120" width="10" height="10"/>
<rect xmlns="http://www.w3.org/2000/svg" x="100" y="120" width="10" height="10"/>
</svg>
