<svg width="120" height="120" viewPort="0 0 120 120" version="1.1" xmlns="http://www.w3.org/2000/svg">
<rect xmlns="http://www.w3.org/2000/svg" x="30" y="10" width="10" height="10"/>
<rect xmlns="http://www.w3.org/2000/svg" x="40" y="10" width="10" height="10"/>
<rect xmlns="http://www.w3.org/2000/svg" x="70" y="10" width="10" height="10"/>
<rect xmlns="http://www.w3.org/2000/svg" x="80" y="10" width="10" height="10"/>
<rect xmlns="http://www.w3.org/2000/svg" x="40" y="20" width="10" height="10"/>
<rect xmlns="http://www.w3.org/2000/svg" x="50" y="20" width="10" height="10"/>
<rect xmlns="http://www.w3.org/2000/svg" x="60" y="20" width="10" height="10"/>
<rect xmlns="http://www.w3.org/2000/svg" x="70" y="20" width="10" height="10"/>
<rect xmlns="http://www.w3.org/2000/svg" x="30" y="30" width="10" height="10"/>
<rect xmlns="http://www.w3.org/2000/svg" x="50" y="30" width="10" height="10"/>
<rect xmlns="http://www.w3.org/2000/svg" x="60" y="30" width="10" height="10"/>
<rect xmlns="http://www.w3.org/2000/svg" x="80" y="30" width="10" height="10"/>
<rect xmlns="http://www.w3.org/2000/svg" x="30" y="40" width="10" height="10"/>
<rect xmlns="http://www.w3.org/2000/svg" x="40" y="40" width="10" height="10"/>
<rect xmlns="http://www.w3.org/2000/svg" x="50" y="40" width="10" height="10"/>
<rect xmlns="http://www.w3.org/2000/svg" x="60" y="40" width="10" height="10"/>
<rect xmlns="http://www.w3.org/2000/svg" x="70" y="40" width="10" height="10"/>
<rect xmlns="http://www.w3.org/2000/svg" x="80" y="40" width="10" height="10"/>
<rect xmlns="http://www.w3.org/2000/svg" x="30" y="50" width="10" height="10"/>
<rect xmlns="http://www.w3.org/2000/svg" x="40" y="50" width="10" height="10"/>
<rect xmlns="http://www.w3.org/2000/svg" x="50" y="50" width="10" height="10"/>
<rect xmlns="http://www.w3.org/2000/svg" x="60" y="50" width="10" height="10"/>
<rect xmlns="http://www.w3.org/2000/svg" x="70" y="50" width="10" height="10"/>
<rect xmlns="http://www.w3.org/2000/svg" x="80" y="50" width="10" height="10"/>
<rect xmlns="http://www.w3.org/2000/svg" x="20" y="60" width="10" height="10"/>
<rect xmlns="http://www.w3.org/2000/svg" x="30" y="60" width="10" height="10"/>
<rect xmlns="http://www.w3.org/2000/svg" x="80" y="60" width="10" height="10"/>
<rect xmlns="http://www.w3.org/2000/svg" x="90" y="60" width="10" height="10"/>
<rect xmlns="http://www.w3.org/2000/svg" x="20" y="70" width="10" height="10"/>
<rect xmlns="http://www.w3.org/2000/svg" x="30" y="70" width="10" height="10"/>
<rect xmlns="http://www.w3.org/2000/svg" x="40" y="70" width="10" height="10"/>
<rect xmlns="http://www.w3.org/2000/svg" x="50" y="70" width="10" height="10"/>
<rect xmlns="http://www.w3.org/2000/svg" x="60" y="70" width="10" height="10"/>
<rect xmlns="http://www.w3.org/2000/svg" x="70" y="70" width="10" height="10"/>
<rect xmlns="http://www.w3.org/2000/svg" x="80" y="70" width="10" height="10"/>
<rect xmlns="http://www.w3.org/2000/svg" x="90" y="70" width="10" height="10"/>
<rect xmlns="http://www.w3.org/2000/svg" x="0" y="80" width="10" height="10"/>
<rect xmlns="http://www.w3.org/2000/svg" x="10" y="80" width="10" height="10"/>
<rect xmlns="http://www.w3.org/2000/svg" x="20" y="80" width="10" height="10"/>
<rect xmlns="http://www.w3.org/2000/svg" x="30" y="80" width="10" height="10"/>
<rect xmlns="http://www.w3.org/2000/svg" x="40" y="80" width="10" height="10"/>
<rect xmlns="http://www.w3.org/2000/svg" x="50" y="80" width="10" height="10"/>
<rect xmlns="http://www.w3.org/2000/svg" x="60" y="80" width="10" height="10"/>
<rect xmlns="http://www.w3.org/2000/svg" x="70" y="80" width="10" height="10"/>
<rect xmlns="http://www.w3.org/2000/svg" x="80" y="80" width="10" height="10"/>
<rect xmlns="http://www.w3.org/2000/svg" x="90" y="80" width="10" height="10"/>
<rect xmlns="http://www.w3.org/2000/svg" x="100" y="80" width="10" height="10"/>
<rect xmlns="http://www.w3.org/2000/svg" x="110" y="80" width="10" height="10"/>
<rect xmlns="http://www.w3.org/2000/svg" x="30" y="90" width="10" height="10"/>
<rect xmlns="http://www.w3.org/2000/svg" x="40" y="90" width="10" height="10"/>
<rect xmlns="http://www.w3.org/2000/svg" x="50" y="90" width="10" height="10"/>
<rect xmlns="http://www.w3.org/2000/svg" x="60" y="90" width="10" height="10"/>
<rect xmlns="http://www.w3.org/2000/svg" x="70" y="90" width="10" height="10"/>
<rect xmlns="http://www.w3.org/2000/svg" x="80" y="90" width="10" height="10"/>
<rect xmlns="http://www.w3.org/2000/svg" x="30" y="100" width="10" height="10"/>
<rect xmlns="http://www.w3.org/2000/svg" x="80" y="100" width="10" height="10"/>
<rect xmlns="http://www.w3.org/2000/svg" x="20" y="110" width="10" height="10"/>
<rect xmlns="http://www.w3.org/2000/svg" x="30" y="110" width="10" height="10"/>
<rect xmlns="http://www.w3.org/2000/svg" x="80" y="110" width="10" height="10"/>
<rect xmlns="http://www.w3.org/2000/svg" x="90" y="110" width="10" height="10"/>
</svg>
